PathFileType	4	(X/Y/Z)	C:/Users/opensim2020/Desktop/walking_exp_matlab/subject01_walking15_straight_04.trc																																																																																																																															
DataRate	CameraRate	NumFrames	NumMarkers	Units	OrigDataRate	OrigDataStartFrame	OrigNumFrames																																																																																																																											
100	100	4	43	mm	100	2172	105																																																																																																																											
Frame#	Time	LFHD			RFHD			LBHD			RBHD			C7			T10			CLAV			STRN			RBAK			LSHO			LUPA			LELB			LFRM			LWRA			LWRB			LFIN			RSHO			RUPA			RELB			RFRM			RWRA			RWRB			RFIN			LASI			RASI			LPSI			RPSI			LTHI			LKNE			LTIB			LANK			LHEE			LTOE			RTHI			RKNE			RTIB			RANK			RHEE			RTOE			*39			*40			*41			*42		
		X1	Y1	Z1	X2	Y2	Z2	X3	Y3	Z3	X4	Y4	Z4	X5	Y5	Z5	X6	Y6	Z6	X7	Y7	Z7	X8	Y8	Z8	X9	Y9	Z9	X10	Y10	Z10	X11	Y11	Z11	X12	Y12	Z12	X13	Y13	Z13	X14	Y14	Z14	X15	Y15	Z15	X16	Y16	Z16	X17	Y17	Z17	X18	Y18	Z18	X19	Y19	Z19	X20	Y20	Z20	X21	Y21	Z21	X22	Y22	Z22	X23	Y23	Z23	X24	Y24	Z24	X25	Y25	Z25	X26	Y26	Z26	X27	Y27	Z27	X28	Y28	Z28	X29	Y29	Z29	X30	Y30	Z30	X31	Y31	Z31	X32	Y32	Z32	X33	Y33	Z33	X34	Y34	Z34	X35	Y35	Z35	X36	Y36	Z36	X37	Y37	Z37	X38	Y38	Z38	X39	Y39	Z39	X40	Y40	Z40	X41	Y41	Z41	X42	Y42	Z42	X43	Y43	Z43
																																																																																																																																		
92	0.91	400.40039	1658.87402	937.35193	464.53693	1665.87903	1030.51379	297.44434	1630.01953	1002.72388	363.33887	1636.76831	1101.94592	259.36234	1432.60461	1041.42554	217.70198	1139.37402	1058.86475	401.51013	1362.91187	1021.60956	441.16183	1207.14697	1017.65942	211.31404	1244.08679	1131.26953	318.05585	1393.94348	871.46515	252.66531	1215.68762	796.50305	218.81264	1067.39502	803.87585	251.43484	955.74646	780.57715	332.27084	842.4494	781.27625	273.67712	835.40173	783.58234	310.51468	765.07037	759.38513	359.02332	1402.15271	1178.27417	313.19748	1209.14661	1295.95288	327.75705	1081.71228	1308.04138	397.02042	976.90216	1327.27783	509.67758	897.70154	1289.34094	475.76767	881.79034	1332.39661	541.17474	827.05029	1327.68225	385.71313	934.5567	939.14783	399.58594	934.93604	1156.3009	203.8389	939.72321	1002.64563	213.96617	950.008	1146.36719	450.65509	621.56152	872.26099	483.08725	490.20947	888.57703	417.08783	311.10217	897.52844	376.84256	99.6377	963.99945	346.45865	73.75362	1030.31067	507.35776	51.36738	927.98987	319.45831	601.94348	1215.11841	307.01349	442.30771	1191.55334	225.37709	284.93585	1206.07104	156.19684	89.41286	1163.53296	95.96526	60.39218	1120.33862	288.03513	33.55016	1149.20764	448.04074	1700.17004	1012.84265	-1973.14551	1023.55115	3101.89624	-2012.49512	1022.07642	3140.8103	NaN	NaN	NaN
93	0.92	413.00214	1657.93506	934.60229	477.78583	1665.20239	1027.47656	310.47992	1629.02014	1000.6236	376.92947	1636.00293	1099.45361	272.57248	1431.83105	1040.16052	230.94583	1138.53833	1057.17554	414.91589	1361.91553	1019.34515	454.29303	1206.14587	1015.63086	224.9193	1243.46631	1129.77856	330.94043	1392.82495	869.37109	263.8696	1214.76526	795.32019	228.91936	1066.9541	803.69836	258.14035	954.80682	780.44647	335.46808	838.93073	780.97479	276.63434	833.7782	783.52728	311.30408	762.2027	759.37372	372.87436	1401.82922	1175.88574	328.91357	1208.85706	1294.36829	344.87927	1081.56396	1306.82654	417.88318	978.94928	1324.56055	532.82001	904.20807	1284.8866	499.9884	886.71393	1328.03748	567.30536	834.4458	1322.27832	399.23349	933.81683	937.65845	412.31454	934.07745	1154.9342	217.03516	938.6059	1000.45789	226.17007	949.34753	1144.0426	465.7966	621.41351	870.32068	498.52582	490.38544	887.78448	442.73929	307.71561	894.71521	418.11649	92.61726	959.9281	388.36526	64.57294	1025.70569	551.37494	53.31806	924.41809	327.23184	602.06592	1214.14429	311.72229	442.5593	1190.89966	228.19214	286.11169	1205.46216	157.12836	91.01875	1163.55762	96.59587	62.87738	1120.56226	288.16428	33.28667	1149.25281	461.00406	1699.25439	1009.78125	-1973.14697	1023.60944	3101.87573	-2012.4989	1022.13177	3140.73218	NaN	NaN	NaN
94	0.93	425.51465	1656.75659	931.73395	490.66309	1664.29675	1024.11523	323.42618	1627.7821	998.41443	390.46188	1635.06067	1096.85986	285.99405	1430.82166	1038.12927	244.21455	1137.49609	1055.34802	428.3653	1360.86365	1016.97449	467.45728	1204.97241	1013.48907	238.55452	1242.60095	1128.15735	343.7966	1391.5802	867.26245	275.26144	1213.70374	793.98096	238.86765	1066.46814	803.37018	265.14102	953.77081	780.2196	339.18204	835.69403	780.66046	280.23218	832.32184	783.30042	312.60498	759.57922	759.29425	386.52182	1401.27222	1173.44531	344.69736	1208.48718	1292.58496	361.87958	1081.36438	1305.53406	438.34225	980.97211	1321.70544	555.47644	910.77606	1280.33435	523.61475	891.67065	1323.65784	592.74219	841.91394	1316.76416	413.01108	932.83905	936.15924	425.18872	933.12573	1153.54163	230.39732	937.26886	998.01709	239.2243	948.79327	1141.42969	480.14575	620.58112	868.26581	513.19733	489.94589	887.16589	468.18384	305.18875	892.22961	458.32147	87.1742	954.74768	430.07813	56.83416	1020.73303	594.51965	56.7933	921.03699	335.186	602.2099	1213.15112	316.92191	442.53574	1190.2771	231.18085	287.54626	1205.04065	157.79996	93.16577	1163.56763	97.14987	65.68528	1120.8186	288.1001	33.32351	1149.26257	473.95767	1698.51392	1006.62183	-1973.15234	1023.46777	3101.89624	-2012.42529	1022.052	3140.8396	NaN	NaN	NaN
95	0.94	437.96204	1655.55945	928.82062	503.71323	1663.30347	1020.7688	336.39636	1626.42053	996.09698	404.01089	1633.97754	1094.18079	299.34918	1429.6908	1035.88989	257.54517	1136.24414	1053.26392	441.76309	1359.65234	1014.46332	480.68384	1203.7168	1011.25677	252.19786	1241.57251	1126.43933	356.83121	1390.15979	864.8894	286.76883	1212.40637	792.53082	249.28116	1065.89832	802.96881	272.56522	952.74628	780.02374	343.379	832.57843	780.29559	283.94949	830.85889	783.10791	314.48737	757.12134	759.24579	400.37326	1400.65356	1171.00354	360.42337	1208.01306	1290.64795	378.74158	1081.11328	1304.03967	458.31537	982.83557	1318.79785	577.26392	917.14789	1275.72449	546.54419	896.73053	1319.25037	617.42651	849.39441	1311.22949	427.00266	931.68652	934.61127	438.21442	931.99847	1152.11267	244.03024	935.90125	995.55188	252.0975	948.16663	1138.68115	493.78598	619.11816	866.34967	527.39844	489.16995	886.67816	492.29358	302.96783	889.85333	497.96619	82.78596	950.00592	470.94464	50.25174	1015.41541	636.06647	61.96091	917.11902	343.33731	602.48138	1212.39612	322.23367	442.87943	1189.85034	234.30264	289.06094	1204.66467	159.11862	94.98825	1163.9679	98.08159	68.4632	1120.5376	288.23471	33.28253	1149.27478	486.79742	1697.31396	1003.23578	-1973.18286	1023.45422	3101.94434	-2012.51904	1021.96301	3140.7334	NaN	NaN	NaN
